# xmcd
# Track frame offsets:
# 150
# 19045
# 33191
# 40803
# 55102
# 71424
# 88492
# 97470
# 111648
# 125720
# 133920
# 143195
#
# Disc length: 2112 seconds
# Revision: 0
# Processed by: cddbd v1.5.2PL0 Copyright (c) Steve Scherf et al.
# Submitted via: VisiTrax 2.10.0.248 - For more info visit www.synapsa.com
#
DISCID=b9083e0c
DTITLE=The Spirit Of The BarT5 - Ridin' Down The Canyon
DYEAR=1900
DGENRE=
TTITLE0=Ridin' Down The Canyon
TTITLE1=Dusty Winds
TTITLE2=Cool Water/Tumblin' Tumbleweeds
TTITLE3=Trail To San Antone
TTITLE4=Buckaroo Dream
TTITLE5=South Of The Border
TTITLE6=That's How A Yodel Was Born
TTITLE7=Blue Shadows On The Trail
TTITLE8=Pecos Bill
TTITLE9=The Tennessee Waltz
TTITLE10=Three On The Trail
TTITLE11=Ghost Riders In The Sky
EXTD=
EXTT0=
EXTT1=
EXTT2=
EXTT3=
EXTT4=
EXTT5=
EXTT6=
EXTT7=
EXTT8=
EXTT9=
EXTT10=
EXTT11=
PLAYORDER=
